HIERARCHY
ROOT Hips
{
  OFFSET -78.2937 95.2471 23.4479
  CHANNELS 6 Xposition Yposition Zposition Zrotation Xrotation Yrotation
  JOINT RightUpLeg
  {
    OFFSET -8.9458 -8.66707 0.101652
    CHANNELS 3 Zrotation Xrotation Yrotation
    JOINT RightLeg
    {
      OFFSET 0 -44.4227 1.3727
      CHANNELS 3 Zrotation Xrotation Yrotation
      JOINT RightFoot
      {
        OFFSET 0.253549 -42.0924 -1.46059
        CHANNELS 3 Zrotation Xrotation Yrotation
        JOINT RightToes
        {
          OFFSET 0.04 -4.41509 8.4991
          CHANNELS 3 Zrotation Xrotation Yrotation
          End Site
          {
            OFFSET -0.08 -0.137448 9.77979
          }
        }
      }
    }
  }
  JOINT Spine
  {
    OFFSET 0 11.8905 0
    CHANNELS 3 Zrotation Xrotation Yrotation
    JOINT Spine1
    {
      OFFSET 0 25.6574 0.127663
      CHANNELS 3 Zrotation Xrotation Yrotation
      JOINT HEad
      {
        OFFSET 0 8.73416 0.011341
        CHANNELS 3 Zrotation Xrotation Yrotation
        End Site
        {
          OFFSET -0.29 12.7742 2.51395
        }
      }
      JOINT LeftShoulder1
      {
        OFFSET 8.99 -0.362252 -0.22
        CHANNELS 3 Zrotation Xrotation Yrotation
        JOINT LeftArm
        {
          OFFSET 10.2827 -0.00338 0.322123
          CHANNELS 3 Zrotation Xrotation Yrotation
          JOINT LeftForeArm
          {
            OFFSET 32.7669 0.099144 -1.42434
            CHANNELS 3 Zrotation Xrotation Yrotation
            JOINT LeftHand
            {
              OFFSET 27.5643 0.085362 1.02216
              CHANNELS 3 Zrotation Xrotation Yrotation
              End Site
              {
                OFFSET 16.7443 -0.6 1.50291
              }
            }
          }
        }
      }
      JOINT RightShoulder
      {
        OFFSET -8.99 -0.362252 -0.22
        CHANNELS 3 Zrotation Xrotation Yrotation
        JOINT RightArm
        {
          OFFSET -10.2827 -0.00338 0.322123
          CHANNELS 3 Zrotation Xrotation Yrotation
          JOINT RightForeArm
          {
            OFFSET -32.8971 0.099144 -1.42434
            CHANNELS 3 Zrotation Xrotation Yrotation
            JOINT RightHand
            {
              OFFSET -27.4921 0.085362 1.02216
              CHANNELS 3 Zrotation Xrotation Yrotation
              End Site
              {
                OFFSET -16.6312 -0.6 1.50291
              }
            }
          }
        }
      }
    }
  }
  JOINT LeftUpLeg
  {
    OFFSET 8.9458 -8.66707 0.101652
    CHANNELS 3 Zrotation Xrotation Yrotation
    JOINT LeftLeg
    {
      OFFSET 0 -44.4227 1.3727
      CHANNELS 3 Zrotation Xrotation Yrotation
      JOINT LeftFoot
      {
        OFFSET -0.253549 -42.0924 -1.46059
        CHANNELS 3 Zrotation Xrotation Yrotation
        JOINT LeftToes
        {
          OFFSET -0.04 -4.41509 8.4991
          CHANNELS 3 Zrotation Xrotation Yrotation
          End Site
          {
            OFFSET 0.08 -0.047448 9.77979
          }
        }
      }
    }
  }
}
MOTION
Frames:	17
Frame Time:	0.0166667
-68.7661 90.4996 21.0094 7.52428 0.606649 99.5661 -25.9689 -30.5756 -1.11241 7.81796 47.8485 -0.160322 11.0086 15.1515 -2.06427 0.0462048 0.000533403 0.662642 4.38768 8.6332 -3.06057 0.721328 16.5933 -4.67262 12.7837 -0.911758 -28.1024 7.95139e-016 -3.75206e-015 -0 -99.3843 -14.8364 -54.8186 -48.7709 61.8614 -76.077 7.21815 19.4659 -2.26649 9.5251 0.200323 -1.31444 49.9281 -27.3152 66.6983 -2.4966 -13.6698 41.5262 -26.4908 13.4185 24.2906 17.4651 -16.6941 -11.5887 -25.0106 59.4765 9.44408 -19.6236 21.3889 5.12747 -1.32782e-009 1.55902e-007 -4.88069e-009 
-68.7708 90.5764 21.4556 7.82802 0.502684 99.3885 -25.4287 -30.3652 -1.65406 7.21362 47.5121 0.341792 10.626 16.7045 -2.13436 0.0462048 0.000533403 0.662642 4.54568 8.78306 -3.31271 1.09364 16.8533 -5.20298 11.4755 -0.628915 -26.9692 3.97569e-016 6.79595e-015 -0 -98.9827 -14.6531 -53.5143 -47.6133 61.2132 -76.6608 7.21815 19.4659 -2.26649 12.036 -0.0873997 -3.30911 60.1704 -29.8511 67.6309 3.8954 0.404101 57.1539 -27.925 13.6896 21.6964 17.4012 -15.9417 -10.6367 -24.0671 59.5855 7.23518 -20.8114 21.2697 5.37051 -1.32782e-009 1.55902e-007 -4.88069e-009 
-68.8751 90.7078 21.7878 8.09813 0.418979 99.0755 -24.9124 -30.1438 -1.96327 6.72788 46.9286 0.741919 10.2159 18.104 -2.17477 0.0462048 0.000533403 0.662642 4.60962 8.91522 -3.47604 1.29062 17.0811 -5.53944 10.4298 -0.362142 -25.9079 -7.95139e-016 1.82633e-015 3.97569e-016 -98.2848 -14.4445 -52.3847 -46.5799 60.6148 -77.1804 7.21815 19.4659 -2.26649 14.3903 -0.421659 -5.07968 70.1741 -33.296 68.4802 8.23193 16.3867 68.8551 -29.7503 13.7035 19.9925 17.4854 -15.0699 -9.55029 -23.1497 59.2856 5.71384 -21.6428 21.6186 5.62253 -1.32782e-009 1.55902e-007 -4.88069e-009 
-69.0793 90.9077 22.0004 8.26506 0.331706 98.7855 -24.4797 -29.9307 -1.87386 6.64019 46.2081 0.722609 9.84805 18.9014 -2.16116 0.0462048 0.000533403 0.662642 4.61549 9.00206 -3.62701 1.36521 17.2267 -5.84538 9.7904 -0.0270645 -24.8805 -7.95139e-016 3.60297e-016 -0 -97.4793 -14.2837 -51.4743 -45.8553 60.1871 -77.5367 7.21815 19.4659 -2.26649 16.5818 -0.795687 -6.701 79.7438 -37.1489 69.7355 10.7966 31.9349 77.925 -31.211 13.6849 18.8737 17.5949 -14.1634 -8.54615 -21.9073 58.3997 4.61745 -22.2149 22.8199 5.99082 -1.32782e-009 1.55902e-007 -4.88069e-009 
-69.3814 91.2261 22.0987 8.30475 0.222433 98.5662 -24.1024 -29.718 -1.4506 6.83582 45.4179 0.489286 9.59689 18.7018 -2.08345 0.0462048 0.000533403 0.662642 4.5822 9.03313 -3.80878 1.3928 17.2745 -6.22588 9.5583 0.394248 -23.8472 3.97569e-016 3.51911e-015 4.96962e-017 -96.7799 -14.242 -50.7576 -45.5402 60.0134 -77.6954 7.21815 19.4659 -2.26649 18.5041 -1.18695 -8.1679 89.2394 -41.1298 71.8257 12.364 46.1193 85.3547 -31.845 13.7371 18.2049 17.6503 -13.2252 -7.77606 -20.2872 56.8041 3.67092 -22.5011 24.8113 6.46391 -1.32782e-009 1.55902e-007 -4.88069e-009 
-69.7823 91.7157 22.0865 8.22005 0.0632443 98.3573 -23.7193 -29.4984 -0.864191 7.07476 44.5818 0.467807 9.53234 17.1745 -1.93567 0.0462048 0.000533403 0.662642 4.52564 9.01571 -4.01995 1.42904 17.2391 -6.68601 9.66269 0.841723 -22.8124 -7.95139e-016 4.16205e-015 -5.96354e-016 -96.3164 -14.3423 -50.2005 -45.6104 60.0948 -77.6773 7.21815 19.4659 -2.26649 20.0379 -1.54934 -9.39413 98.9553 -45.0009 75.0172 13.755 58.7387 91.3786 -31.7481 13.8441 17.8961 17.6412 -12.2277 -7.33343 -18.5936 54.5276 2.76637 -22.4753 27.0867 6.92818 -1.32781e-009 1.55902e-007 -4.88069e-009 
-70.2801 92.4025 21.9712 8.017 -0.163463 98.0567 -23.313 -29.2574 -0.266656 7.19771 43.6547 0.95046 9.71921 14.1904 -1.71402 0.0462048 0.000533403 0.662642 4.44467 8.96065 -4.22743 1.48417 17.1389 -7.15291 10.0282 1.23961 -21.8223 -7.95139e-016 6.23687e-015 -0 -96.0823 -14.5278 -49.7772 -45.9316 60.3452 -77.531 7.21815 19.4659 -2.26649 21.146 -1.83038 -10.2677 98.407 -45.0735 72.0637 11.4146 61.6961 99.5538 -30.7206 14.3426 16.8315 17.6015 -11.1508 -7.24256 -17.2115 51.7212 1.95573 -22.2236 29.0109 7.26602 -1.32783e-009 1.55902e-007 -4.88069e-009 
-70.8542 93.2842 21.7765 7.68048 -0.429302 97.5968 -22.9574 -28.9535 0.230125 7.13943 42.501 1.96114 10.2547 9.91787 -1.41827 0.0462048 0.000533403 0.662642 4.30058 8.86426 -4.38877 1.52243 16.968 -7.53195 10.5934 1.55125 -20.9396 -3.7932e-033 -5.46658e-016 -3.97569e-016 -95.9592 -14.6664 -49.4435 -46.3127 60.6368 -77.337 7.21815 19.4659 -2.26649 21.8899 -2.00485 -10.7519 97.31 -44.8347 69.2798 8.63751 63.4236 107.24 -29.6778 14.8741 15.5573 17.5442 -10.0231 -7.40809 -16.3071 48.6021 1.28173 -21.8412 30.0642 7.38967 -1.32782e-009 1.55902e-007 -4.88069e-009 
-71.4592 94.3366 21.5466 7.16601 -0.659248 96.9948 -22.7906 -28.5189 0.512603 6.86365 40.8907 3.29856 11.2863 4.92787 -1.05533 0.0462048 0.000533403 0.662642 4.02618 8.70153 -4.47649 1.4836 16.6863 -7.76292 11.2952 1.7937 -20.2188 -3.97569e-016 -4.44781e-015 1.59028e-015 -95.7802 -14.6059 -49.1262 -46.56 60.8501 -77.1954 7.21815 19.4659 -2.26649 22.3922 -2.09802 -10.9623 96.2364 -44.5162 67.0253 5.63365 64.4472 114.407 -28.7221 15.4372 13.9812 17.4322 -8.95595 -7.62941 -15.8091 45.4297 0.713563 -21.2579 29.9389 7.20823 -1.32782e-009 1.55902e-007 -4.88069e-009 
-72.0182 95.5009 21.3563 6.43472 -0.77333 96.3369 -22.8954 -27.9401 0.432109 6.31125 38.6971 4.68177 12.9317 0.112741 -0.642584 0.0462048 0.000533403 0.662642 3.56567 8.4431 -4.47844 1.32582 16.2477 -7.85208 12.0534 2.00729 -19.6948 3.97569e-016 -9.69075e-016 -7.95139e-016 -95.3997 -14.2491 -48.7468 -46.5406 60.9143 -77.1867 7.21815 19.4659 -2.26649 22.7852 -2.17106 -11.1217 95.1162 -44.056 65.1159 2.48685 64.8028 121.108 -27.795 16.051 12.0382 17.2249 -8.08825 -7.7457 -15.5758 42.4591 0.249024 -20.3241 28.5963 6.67445 -1.32782e-009 1.55902e-007 -4.88069e-009 
-72.4676 96.7191 21.2683 5.5012 -0.737475 95.7644 -23.2293 -27.2448 -0.103528 5.47163 36.0252 5.77849 15.1735 -3.7702 -0.210536 0.0462048 0.000533403 0.662642 2.92902 8.08832 -4.41859 1.05865 15.6522 -7.87001 12.7691 2.21289 -19.3783 -1.19271e-015 3.18055e-015 7.95139e-016 -94.7459 -13.592 -48.2567 -46.2354 60.8262 -77.3355 7.21815 19.4659 -2.26649 23.1571 -2.27678 -11.4132 94.0055 -43.4472 63.3924 -0.457968 64.6667 127.145 -26.715 16.7232 9.75564 16.9026 -7.50676 -7.75027 -15.4677 39.8294 -0.0438942 -19.0116 26.289 5.86298 -1.32782e-009 1.55902e-007 -4.88069e-009 
-72.816 97.9715 21.2774 4.44521 -0.570587 95.4517 -23.7085 -26.4251 -0.9572 4.54385 33.1531 6.05924 17.7936 -6.44228 0.198435 0.0462048 0.000533403 0.662642 2.18663 7.67398 -4.37383 0.725799 14.963 -7.91149 13.3416 2.40388 -19.2592 -3.97569e-016 -3.40419e-015 7.95139e-016 -93.8363 -12.7026 -47.6672 -45.7198 60.6297 -77.6176 7.21815 19.4659 -2.26649 23.5314 -2.43033 -11.8825 93.073 -42.8091 61.7831 -2.88908 64.2847 132.334 -25.237 17.4416 7.21234 16.4456 -7.23071 -7.73676 -15.3437 37.5396 -0.094684 -17.4176 23.4611 4.93055 -1.32782e-009 1.55902e-007 -4.88069e-009 
-73.0932 99.2096 21.3638 3.37042 -0.326344 95.4882 -24.2466 -25.638 -1.79755 3.88269 30.7433 5.08355 20.2429 -7.9745 0.517359 0.0462048 0.000533403 0.662642 1.48092 7.26537 -4.38789 0.380447 14.2831 -8.04007 13.6987 2.56436 -19.3074 -5.96354e-016 3.05631e-015 -0 -92.7546 -11.6769 -47.0471 -45.1043 60.3807 -77.9857 7.21815 19.4659 -2.26649 23.8911 -2.61784 -12.4748 92.4666 -42.2955 60.264 -4.73998 63.8134 136.663 -23.2012 18.166 4.48641 15.8711 -7.24001 -7.76834 -15.1171 35.6216 0.165746 -15.6805 20.5122 4.01493 -1.32782e-009 1.55902e-007 -4.88069e-009 
-73.3656 100.392 21.4639 2.37775 -0.106772 95.8578 -24.7324 -25.0947 -2.28524 3.78494 29.369 2.94359 21.7233 -8.28604 0.615224 0.0462048 0.000533403 0.662642 1.04965 6.93942 -4.46355 0.0761115 13.7184 -8.25529 13.8141 2.67837 -19.4708 6.4605e-016 3.5292e-015 7.95139e-016 -91.6307 -10.6124 -46.4779 -44.5036 60.1334 -78.375 7.21815 19.4659 -2.26649 24.2056 -2.81875 -13.1204 92.1953 -41.9691 58.8136 -6.06728 63.2988 140.156 -20.726 18.8166 1.72805 15.2476 -7.47511 -7.80944 -14.7889 34.0909 0.836546 -13.872 17.7898 3.19982 -1.32782e-009 1.55902e-007 -4.88069e-009 
-73.6821 101.45 21.5266 1.57076 0.00349983 96.4525 -25.0648 -24.9463 -2.17198 4.40553 29.3033 0.184308 21.6589 -7.33294 0.409454 0.0462048 0.000533403 0.662642 1.02972 6.74543 -4.56452 -0.143308 13.3418 -8.49881 13.7035 2.73395 -19.6845 -4.47266e-016 2.05618e-015 -7.95139e-016 -90.6234 -9.59881 -46.005 -44.0202 59.9373 -78.7136 7.21815 19.4659 -2.26649 24.4437 -3.01804 -13.7769 92.1678 -41.8057 57.4443 -6.90096 62.8133 142.744 -18.2747 19.3025 -0.733679 14.686 -7.84314 -7.7918 -14.5326 33.018 2.07755 -12.0348 15.4532 2.51516 -1.32782e-009 1.55902e-007 -4.88069e-009 
-74.0391 102.259 21.5604 1.03021 0.0115363 97.1313 -25.2196 -25.1507 -1.37387 5.70769 30.3691 -2.61657 20.2797 -5.28265 -0.0231219 0.0462048 0.000533403 0.662642 1.28469 6.67588 -4.65038 -0.264078 13.1685 -8.6982 13.4152 2.73913 -19.8854 2.48481e-016 1.11816e-015 -0 -89.8937 -8.71223 -45.6234 -43.7269 59.828 -78.933 7.21815 19.4659 -2.26649 24.5912 -3.20733 -14.4243 92.3233 -41.7846 56.2618 -7.24925 62.5498 144.309 -16.4754 19.5834 -2.46976 14.2951 -8.28087 -7.70836 -14.6967 32.5802 4.07602 -10.3096 13.4776 1.97258 -1.32782e-009 1.55902e-007 -4.88069e-009 
-74.4018 102.685 21.6044 0.788354 -0.0374274 97.7703 -25.1733 -25.4601 -0.0526029 7.37416 31.9664 -4.89887 18.4468 -2.44815 -0.52865 0.0462048 0.000533403 0.662642 1.56279 6.69138 -4.70241 -0.29302 13.1622 -8.81516 13.022 2.73391 -20.0184 -6.95746e-016 -1.21756e-015 -0 -89.5687 -8.00958 -45.2939 -43.655 59.8188 -78.9827 7.21815 19.4659 -2.26649 24.66 -3.3796 -15.0372 92.653 -41.9077 55.43 -7.15058 62.7039 144.767 -15.8219 19.6794 -3.15657 14.1794 -8.76264 -7.59989 -15.6292 32.9298 6.83799 -8.96804 11.8781 1.59547 -1.32782e-009 1.55902e-007 -4.88069e-009 
